<svg width="24" height="24" viewBox="0 0 24 24" fill="none" xmlns="http://www.w3.org/2000/svg">
<path d="M11.8438 2.15625C17.2803 2.15625 21.6875 6.56344 21.6875 12C21.6875 17.4366 17.2803 21.8438 11.8438 21.8438C6.40719 21.8438 2 17.4366 2 12C2 6.56344 6.40719 2.15625 11.8438 2.15625Z" stroke="#252730" stroke-width="1.5" stroke-linecap="round" stroke-linejoin="round"/>
<path d="M19 18C18.8572 17.4291 18.6504 16.8614 18.3805 16.299C18.0436 15.5914 16.6786 15.0791 14.9969 15.0368C13.999 15.0119 12.9996 14.9997 12 15C10.845 15 9.837 15.0154 9.00313 15.0368C7.32138 15.0791 5.95638 15.5918 5.6195 16.299C5.392 16.7753 5.15575 17.3644 5 18" stroke="#252730" stroke-width="1.5" stroke-linecap="round" stroke-linejoin="round"/>
<path d="M9 9.8125C9 10.5584 9.29632 11.2738 9.82376 11.8012C10.3512 12.3287 11.0666 12.625 11.8125 12.625C12.5584 12.625 13.2738 12.3287 13.8012 11.8012C14.3287 11.2738 14.625 10.5584 14.625 9.8125C14.625 9.06658 14.3287 8.35121 13.8012 7.82376C13.2738 7.29632 12.5584 7 11.8125 7C11.0666 7 10.3512 7.29632 9.82376 7.82376C9.29632 8.35121 9 9.06658 9 9.8125Z" stroke="#252730" stroke-width="1.5" stroke-linecap="round" stroke-linejoin="round"/>
</svg>
