<svg width="24" height="24" viewBox="0 0 24 24" fill="none" xmlns="http://www.w3.org/2000/svg">
<path d="M6.72941 14.2148C4.78884 14.7935 3.2715 16.1333 2.67722 17.811C2.35493 18.7215 3.02274 19.5775 3.97893 19.7135C5.00636 19.859 6.58998 20 8.88103 20C11.1721 20 12.7553 19.859 13.7831 19.7135C14.7393 19.5775 15.4075 18.7215 15.0848 17.811C14.4906 16.1333 12.9732 14.7935 11.0326 14.2148" fill="white"/>
<path d="M6.72941 14.2148C4.78884 14.7935 3.2715 16.1333 2.67722 17.811C2.35493 18.7215 3.02274 19.5775 3.97893 19.7135C5.00636 19.859 6.58998 20 8.88103 20C11.1721 20 12.7553 19.859 13.7831 19.7135C14.7393 19.5775 15.4075 18.7215 15.0848 17.811C14.4906 16.1333 12.9732 14.7935 11.0326 14.2148" stroke="#252730" stroke-linecap="round" stroke-linejoin="round"/>
<path d="M14.2145 9.33333C14.2145 12.2789 11.8267 14.6667 8.88118 14.6667C5.93566 14.6667 3.54785 12.2789 3.54785 9.33333C3.54785 6.38781 5.93566 4 8.88118 4C11.8267 4 14.2145 6.38781 14.2145 9.33333Z" fill="white" stroke="#252730" stroke-linecap="round" stroke-linejoin="round"/>
<path d="M13.3959 14.2148C11.4553 14.7935 9.93801 16.1333 9.34372 17.811C9.02144 18.7215 9.68924 19.5775 10.6454 19.7135C11.6729 19.859 13.2565 20 15.5475 20C17.8386 20 19.4218 19.859 20.4496 19.7135C21.4058 19.5775 22.074 18.7215 21.7513 17.811C21.1571 16.1333 19.6397 14.7935 17.6992 14.2148" fill="white"/>
<path d="M13.3959 14.2148C11.4553 14.7935 9.93801 16.1333 9.34372 17.811C9.02144 18.7215 9.68924 19.5775 10.6454 19.7135C11.6729 19.859 13.2565 20 15.5475 20C17.8386 20 19.4218 19.859 20.4496 19.7135C21.4058 19.5775 22.074 18.7215 21.7513 17.811C21.1571 16.1333 19.6397 14.7935 17.6992 14.2148" stroke="#252730" stroke-linecap="round" stroke-linejoin="round"/>
<path d="M20.881 9.33333C20.881 12.2789 18.4932 14.6667 15.5477 14.6667C12.6022 14.6667 10.2144 12.2789 10.2144 9.33333C10.2144 6.38781 12.6022 4 15.5477 4C18.4932 4 20.881 6.38781 20.881 9.33333Z" fill="white" stroke="#252730" stroke-linecap="round" stroke-linejoin="round"/>
</svg>
