<svg width="24" height="24" viewBox="0 0 24 24" fill="none" xmlns="http://www.w3.org/2000/svg">
<path d="M4.61625 18.8142C3.42094 18.7312 2.48859 17.8387 2.38406 16.6453C2.26875 15.3375 2.15625 13.3523 2.15625 10.5938C2.15625 7.83516 2.26875 5.84953 2.38406 4.54219C2.48859 3.34875 3.42094 2.45625 4.61625 2.37328C6.12891 2.26781 8.54437 2.15625 12 2.15625C15.4552 2.15625 17.8711 2.26781 19.3838 2.37328C20.5791 2.45625 21.5114 3.34875 21.6159 4.54219C21.7313 5.85 21.8438 7.83516 21.8438 10.5938C21.8438 13.3523 21.7313 15.338 21.6159 16.6453C21.5114 17.8387 20.5791 18.7312 19.3838 18.8142C17.9761 18.9127 15.7866 19.0158 12.705 19.0298L9.32906 21.9234C8.72062 22.4447 7.78125 22.0125 7.78125 21.2119V18.9689C6.72537 18.9373 5.67018 18.8857 4.61625 18.8142Z" stroke="#252730" stroke-width="1.5" stroke-linejoin="round"/>
<path d="M6 10.4657C6 10.077 6.15443 9.70417 6.42932 9.42929C6.7042 9.1544 7.07703 8.99997 7.46577 8.99997C7.85452 8.99997 8.22735 9.1544 8.50223 9.42929C8.77712 9.70417 8.93155 10.077 8.93155 10.4657C8.93155 10.8545 8.77712 11.2273 8.50223 11.5022C8.22735 11.7771 7.85452 11.9315 7.46577 11.9315C7.07703 11.9315 6.7042 11.7771 6.42932 11.5022C6.15443 11.2273 6 10.8545 6 10.4657Z" fill="#252730"/>
<path d="M15.381 10.4657C15.381 10.2733 15.4189 10.0827 15.4926 9.90482C15.5662 9.72698 15.6742 9.5654 15.8103 9.42929C15.9464 9.29318 16.108 9.18521 16.2858 9.11155C16.4637 9.03788 16.6543 8.99997 16.8468 8.99997C17.0392 8.99997 17.2298 9.03788 17.4077 9.11155C17.5855 9.18521 17.7471 9.29318 17.8832 9.42929C18.0193 9.5654 18.1273 9.72698 18.201 9.90482C18.2746 10.0827 18.3125 10.2733 18.3125 10.4657C18.3125 10.6582 18.2746 10.8488 18.201 11.0267C18.1273 11.2045 18.0193 11.3661 17.8832 11.5022C17.7471 11.6383 17.5855 11.7463 17.4077 11.8199C17.2298 11.8936 17.0392 11.9315 16.8468 11.9315C16.6543 11.9315 16.4637 11.8936 16.2858 11.8199C16.108 11.7463 15.9464 11.6383 15.8103 11.5022C15.6742 11.3661 15.5662 11.2045 15.4926 11.0267C15.4189 10.8488 15.381 10.6582 15.381 10.4657Z" fill="#252730"/>
<path d="M10.6904 10.4657C10.6904 10.077 10.8449 9.70417 11.1197 9.42929C11.3946 9.1544 11.7675 8.99997 12.1562 8.99997C12.545 8.99997 12.9178 9.1544 13.1927 9.42929C13.4675 9.70417 13.622 10.077 13.622 10.4657C13.622 10.8545 13.4675 11.2273 13.1927 11.5022C12.9178 11.7771 12.545 11.9315 12.1562 11.9315C11.7675 11.9315 11.3946 11.7771 11.1197 11.5022C10.8449 11.2273 10.6904 10.8545 10.6904 10.4657Z" fill="#252730"/>
</svg>
