<svg width="24" height="24" viewBox="0 0 24 24" fill="none" xmlns="http://www.w3.org/2000/svg">
<path d="M13.3195 2.7C16.7109 4.20515 19.2816 6.18281 20.6105 7.32515C21.2822 7.90265 21.6567 8.73375 21.7027 9.61828C21.7669 10.8328 21.8438 12.7336 21.8438 14.8125C21.8438 16.4119 21.7983 17.9559 21.7481 19.1686C21.7225 19.8438 21.4415 20.4842 20.9619 20.9601C20.4823 21.4361 19.8398 21.7122 19.1644 21.7327C17.5425 21.7889 15.1355 21.8437 12 21.8437C8.86453 21.8437 6.45797 21.7884 4.83563 21.7331C4.16021 21.7127 3.51775 21.4366 3.03811 20.9606C2.55848 20.4846 2.27746 19.8443 2.25188 19.1691C2.19059 17.7177 2.15871 16.2652 2.15625 14.8125C2.15625 12.7336 2.23359 10.8328 2.29688 9.61828C2.34375 8.73375 2.71781 7.90265 3.38953 7.32515C4.71844 6.18234 7.28953 4.20515 10.6805 2.7C11.096 2.51565 11.5455 2.42041 12 2.42041C12.4545 2.42041 12.904 2.51565 13.3195 2.7Z" stroke="#252730" stroke-width="1.5" stroke-linecap="round" stroke-linejoin="round"/>
<path d="M8.25 18.5625H15.75" stroke="#252730" stroke-width="1.5" stroke-linecap="round" stroke-linejoin="round"/>
</svg>
