<svg width="18" height="18" viewBox="0 0 18 18" fill="none" xmlns="http://www.w3.org/2000/svg">
<path d="M5.04706 10.6611C3.59163 11.0951 2.45363 12.1 2.00791 13.3583C1.7662 14.0411 2.26706 14.6831 2.9842 14.7851C3.75477 14.8943 4.94248 15 6.66077 15C8.37906 15 9.56648 14.8943 10.3373 14.7851C11.0545 14.6831 11.5556 14.0411 11.3136 13.3583C10.8679 12.1 9.72991 11.0951 8.27448 10.6611" fill="white"/>
<path d="M5.04706 10.6611C3.59163 11.0951 2.45363 12.1 2.00791 13.3583C1.7662 14.0411 2.26706 14.6831 2.9842 14.7851C3.75477 14.8943 4.94248 15 6.66077 15C8.37906 15 9.56649 14.8943 10.3373 14.7851C11.0545 14.6831 11.5556 14.0411 11.3136 13.3583C10.8679 12.1 9.72991 11.0951 8.27448 10.6611" stroke="#858899" stroke-linecap="round" stroke-linejoin="round"/>
<path d="M10.6608 7C10.6608 9.20914 8.86999 11 6.66084 11C4.4517 11 2.66084 9.20914 2.66084 7C2.66084 4.79086 4.4517 3 6.66084 3C8.86999 3 10.6608 4.79086 10.6608 7Z" fill="white" stroke="#858899" stroke-linecap="round" stroke-linejoin="round"/>
<path d="M10.047 10.6611C8.59155 11.0951 7.45355 12.1 7.00784 13.3583C6.76612 14.0411 7.26698 14.6831 7.98412 14.7851C8.75469 14.8943 9.94241 15 11.6607 15C13.379 15 14.5664 14.8943 15.3373 14.7851C16.0544 14.6831 16.5556 14.0411 16.3136 13.3583C15.8678 12.1 14.7298 11.0951 13.2744 10.6611" fill="white"/>
<path d="M10.047 10.6611C8.59155 11.0951 7.45355 12.1 7.00784 13.3583C6.76612 14.0411 7.26698 14.6831 7.98412 14.7851C8.75469 14.8943 9.94241 15 11.6607 15C13.379 15 14.5664 14.8943 15.3373 14.7851C16.0544 14.6831 16.5556 14.0411 16.3136 13.3583C15.8678 12.1 14.7298 11.0951 13.2744 10.6611" stroke="#858899" stroke-linecap="round" stroke-linejoin="round"/>
<path d="M15.6608 7C15.6608 9.20914 13.8699 11 11.6608 11C9.45162 11 7.66077 9.20914 7.66077 7C7.66077 4.79086 9.45162 3 11.6608 3C13.8699 3 15.6608 4.79086 15.6608 7Z" fill="white" stroke="#858899" stroke-linecap="round" stroke-linejoin="round"/>
</svg>
