<svg width="24" height="24" viewBox="0 0 24 24" fill="none" xmlns="http://www.w3.org/2000/svg">
<path d="M18.5625 8.71875C18.5625 12.3431 15.6244 15.2812 12 15.2812C8.37562 15.2812 5.4375 12.3431 5.4375 8.71875C5.4375 5.09437 8.37562 2.15625 12 2.15625C15.6244 2.15625 18.5625 5.09437 18.5625 8.71875Z" stroke="#252730" stroke-linecap="round" stroke-linejoin="round"/>
<path d="M9.35262 14.7253C6.96481 15.4374 5.09778 17.086 4.36653 19.1503C3.96996 20.2707 4.79168 21.3239 5.96824 21.4913C7.23246 21.6703 9.18106 21.8438 12.0001 21.8438C14.8192 21.8438 16.7673 21.6703 18.032 21.4913C19.2086 21.3239 20.0307 20.2707 19.6337 19.1503C18.9025 17.086 17.0354 15.4374 14.6476 14.7253" stroke="#252730" stroke-linecap="round" stroke-linejoin="round"/>
<path d="M18.5625 8.71875C14.9381 8.71875 12 5.78063 12 2.15625C12 5.78063 9.06188 8.71875 5.4375 8.71875" stroke="#252730" stroke-linecap="round" stroke-linejoin="round"/>
<path d="M13.875 11.7656C13.0547 13.0158 10.9453 13.0158 10.125 11.7656" stroke="#252730" stroke-linecap="round" stroke-linejoin="round"/>
<path d="M9.65625 9.1875V9.42188" stroke="#252730" stroke-linecap="round" stroke-linejoin="round"/>
<path d="M14.3442 9.1875V9.42188" stroke="#252730" stroke-linecap="round" stroke-linejoin="round"/>
</svg>
